<svg id="Layer_1" xmlns="http://www.w3.org/2000/svg" width="686.3" height="361.2" viewBox="0 0 686.3 361.2">
  <title>
    .NET South East
  </title>
  <path class="st0" d="M169.7 12.9C169.7 4.6 174 0 182.3 0h16.6c7.4 0 12 2.5 15.3 8.6l77.2 117.1c8.3 12.9 18.1 33.7 18.1 33.7h.6s-2.1-20.8-2.1-33.7V12.9C308 4.6 312.6 0 320.9 0h13.8c8.3 0 12.9 4.6 12.9 12.9v191.9c0 8.6-4.6 12.9-12.9 12.9h-16.6c-6.7 0-11.6-2.5-15-8.6L225.5 92.3c-8-12.9-18.1-33.7-18.1-33.7h-.6s2.1 20.8 2.1 33.7v112.5c0 8.6-4.3 12.9-12.6 12.9h-14.1c-8.3 0-12.6-4.3-12.6-12.9V12.9zM377.6 12.9c0-8.3 4.3-12.9 12.6-12.9H495c8.3 0 12.9 4.6 12.9 12.9v8.6c0 8.3-4.6 12.6-12.9 12.6h-78.2v57h60.7c8.3 0 12.9 4.3 12.9 12.6v8.6c0 8.6-4.6 12.9-12.9 12.9h-60.7v58.5H500c8.3 0 12.9 4.3 12.9 12.6v8.6c0 8.6-4.6 12.9-12.9 12.9H390.2c-8.3 0-12.6-4.3-12.6-12.9v-192zM590.4 34h-44c-8.6 0-12.9-4.3-12.9-12.6v-8.6c0-8.3 4.3-12.9 12.9-12.9h127.3c8.3 0 12.6 4.6 12.6 12.9v8.6c0 8.3-4.3 12.6-12.6 12.6h-44v170.7c0 8.6-4.3 12.9-12.9 12.9H603c-8.3 0-12.6-4.3-12.6-12.9V34z"/>
  <g>
    <path class="st0" d="M132 153.7c-4.4 3.4-10.8 10.2-16.7 22.6-.1.3-.5.3-.7 0-1.7-3.2-7.9-15.7-22.7-20.7-.4-.1-.3-.8.2-.8 6.1.6 17 1.1 22.8 9.4 0 0 5.1-10.6 17-13.5-1.7-35.1-31-63.1-66.6-62.7C29.9 88.5.8 117.2 0 152.6c-.8 37.2 29 67.5 66 67.5 3.1 0 6.2-.2 9.3-.6 28.6-4 51.3-26.3 55.9-54.7.5-3.7.8-7.4.8-11.1zm-56.2 49.2c-.1.4-.7.4-.8 0-2-5.6-10.2-25.1-30.9-32.3-.5-.2-.3-.9.2-.8 8.1.7 25.6 3.7 32 17.1 0 0 5.4-12.2 23.3-13 .4 0 .6.6.3.8-4.8 3.2-20.8 14.8-24.1 28.2z"/>
  </g>
  <g>
    <path class="st0" d="M3 345.6l1.6-2.2c2-2.7 4.1-2.8 7.2-1.1 3.6 2.3 10.2 6.4 19.4 6.4 7.8 0 13.5-3.8 13.5-10.5 0-15.5-40.8-10.3-40.8-37.1 0-15 13.1-22.8 28.6-22.8 10.9 0 18.1 3.8 21.9 6.1 2.8 1.4 3.3 4.1 1.7 6.9l-1.4 2.3c-1.6 2.8-3.9 3.1-6.9 1.7-3.3-1.9-8.6-4.5-16.1-4.5s-13.3 3.3-13.3 10c0 15.8 40.8 10.2 40.8 37.1 0 13.5-11.4 23.3-28.5 23.3-13.1 0-22.2-5.3-26.6-8.6-2.7-1.7-2.9-4.4-1.1-7zM113.2 278.3c23.6 0 42.7 17.4 42.7 41.3 0 24.1-19.1 41.6-42.7 41.6s-42.5-17.5-42.5-41.6c0-23.9 18.9-41.3 42.5-41.3zm0 69.8c15 0 27.2-11.9 27.2-28.5 0-16.4-12.2-28.2-27.2-28.2-14.9 0-27.2 11.7-27.2 28.2 0 16.6 12.4 28.5 27.2 28.5zM171.7 285.3c0-3.4 1.7-5.2 5.2-5.2h4.8c3.3 0 5 1.7 5 5.2v42.1c0 10.9 2.3 19.7 14.9 19.7 16.3 0 25.8-14.2 25.8-29.9v-31.9c0-3.4 1.7-5.2 5.2-5.2h4.8c3.3 0 5.2 1.7 5.2 5.2v68.8c0 3.4-1.9 5.2-5.2 5.2H233c-3.4 0-5.2-1.7-5.2-5.2v-7c0-2.3.5-4.5.5-4.5h-.3c-3.4 7.8-13.9 18.6-29.4 18.6-17.8 0-26.9-9.4-26.9-30.3v-45.6zM268.2 293.3h-5.5c-3.3 0-5-1.9-5-5.2v-2c0-3.3 1.7-5.2 5.2-5.2h5.6v-17.4c0-3.4 1.9-5.2 5.2-5.2h4.5c3.4 0 5.2 1.7 5.2 5.2V281h13.8c3.4 0 5.2 1.9 5.2 5.2v2c0 3.3-1.7 5.2-5 5.2h-13.9v35.2c0 15 9.2 17.4 15 17.8 4.1.3 5.5 1.6 5.5 5.2v3.3c0 3.6-2 5.2-6.3 5.2-15.6 0-29.4-9.1-29.4-29.1v-37.7zM318.1 254.1c0-3.4 1.7-5.2 5.2-5.2h4.8c3.3 0 5 1.7 5 5.2v35.8c0 3.8-.5 6.6-.5 6.6h.3c3.4-7.7 13.8-18.1 29.6-18.1 18.6 0 27.2 10.2 27.2 30.3v45.5c0 3.4-1.9 5.2-5.2 5.2h-4.8c-3.4 0-5.2-1.7-5.2-5.2v-42.1c0-11.1-2.3-19.9-15-19.9-15.2 0-26.4 12.5-26.4 29.6v32.4c0 3.4-1.7 5.2-5 5.2h-4.8c-3.4 0-5.2-1.7-5.2-5.2V254.1zM445.1 278.3c21.9 0 34.1 15.6 34.1 37.7 0 2.8-2.2 5.3-5.3 5.3H421c.9 17.2 13.3 26.7 27.4 26.7 8.6 0 15.3-3.6 18.9-6.3 3-1.6 5.3-1.3 7 1.7l1.4 2.3c1.6 2.7 1.1 5.3-1.6 6.9-4.7 3.3-14.1 8.4-26.7 8.4-24.9 0-41.9-18-41.9-41.4 0-25 17.1-41.3 39.6-41.3zm18.9 33c-.5-13.9-8.8-21.1-19.2-21.1-11.6 0-21 7.8-23.1 21.1H464zM536.6 310.5h4.1v-2c0-13-7.5-17.4-17.2-17.4-7.8 0-14.2 3-17.8 5-3 1.4-5.3.9-7-1.9l-1.3-2.2c-1.6-3-1.1-5.5 1.7-7 4.7-2.7 13.6-6.7 25.6-6.7 19.7 0 31.1 10.9 31.1 31v44.9c0 3.4-1.9 5.2-5.2 5.2h-3.9c-3.3 0-5.2-1.7-5.2-5.2v-4.7c0-3 .5-4.8.5-4.8h-.3s-7.4 16.6-25.8 16.6c-13.9 0-26.6-8.6-26.6-23.5.1-24.6 30.9-27.3 47.3-27.3zm-17.2 38.7c13.3 0 21.4-13.5 21.4-25.2v-3.4h-4.1c-11.1 0-32.1.9-32.1 16 .1 6.1 5.1 12.6 14.8 12.6zM572.4 345.6l1.6-2.2c2-2.7 4.1-2.8 7.2-1.1 3.6 2.3 10.2 6.4 19.4 6.4 7.8 0 13.5-3.8 13.5-10.5 0-15.5-40.8-10.3-40.8-37.1 0-15 13.1-22.8 28.6-22.8 10.9 0 18.1 3.8 21.9 6.1 2.8 1.4 3.3 4.1 1.7 6.9l-1.4 2.3c-1.6 2.8-3.9 3.1-6.9 1.7-3.3-1.9-8.6-4.5-16.1-4.5s-13.3 3.3-13.3 10c0 15.8 40.8 10.2 40.8 37.1 0 13.5-11.4 23.3-28.5 23.3-13.1 0-22.2-5.3-26.6-8.6-2.7-1.7-2.8-4.4-1.1-7zM649 293.3h-5.5c-3.3 0-5-1.9-5-5.2v-2c0-3.3 1.7-5.2 5.2-5.2h5.6v-17.4c0-3.4 1.9-5.2 5.2-5.2h4.5c3.4 0 5.2 1.7 5.2 5.2V281H678c3.4 0 5.2 1.9 5.2 5.2v2c0 3.3-1.7 5.2-5 5.2h-13.9v35.2c0 15 9.2 17.4 15 17.8 4.1.3 5.5 1.6 5.5 5.2v3.3c0 3.6-2 5.2-6.3 5.2-15.6 0-29.4-9.1-29.4-29.1v-37.7z"/>
  </g>
</svg>