<svg width="31" height="22" viewBox="0 0 31 22" xmlns="http://www.w3.org/2000/svg">
  <title>
    YouTube
  </title>
  <path d="M12.1 14.7V6.1l8.25 4.3-8.24 4.27zM30.2 4.62s-.28-2.1-1.2-3.03C27.84.4 26.54.37 25.94.3 21.67 0 15.27 0 15.27 0h-.02S8.85 0 4.58.3c-.6.08-1.9.1-3.06 1.3C.6 2.53.32 4.63.32 4.63S0 7.1 0 9.57v2.32c0 2.45.3 4.9.3 4.9s.3 2.1 1.22 3.04c1.16 1.22 2.68 1.18 3.36 1.3 2.45.24 10.38.32 10.38.32s6.4 0 10.68-.32c.6-.07 1.9-.08 3.06-1.3.92-.92 1.2-3.03 1.2-3.03s.32-2.45.32-4.92V9.56c0-2.47-.3-4.94-.3-4.94z" fill="#343433" fill-rule="evenodd"/>
</svg>