<svg width="357" height="128" viewBox="0 0 357 128" xmlns="http://www.w3.org/2000/svg">
  <title>
    Meetup
  </title>
  <path d="M357.12 75.04c-.04-.47-.16-.96-.35-1.47-1.2-3.1-6.62-.2-8.46.57-3.33 1.4-7.13 3.23-10.82 2.17-1.02-.28-.72-1.15 0-1.6.36-.2 9.83-5.55 12.62-17.4 4.45-18.96-9.23-24.23-14.63-24.87-5.5-.65-11.6.2-14.2 1.23-7.3 2.93-9.2 9.45-9.72 13.36-.7 5.37-.77 14.74-1.44 18.96-.42 2.77-2.5 7-6.58 6.6-7.87-.8-11.48-3.8-11.23-8.76.16-3.48.1-4.17 1.2-11.9.95-6.6 1.55-8.18 1.55-9.7 0-4.33-5.84-5.2-7.8-3.25-1.5 1.5-1.87 4.58-2.25 9.77-.35 4.88-1.1 11.22-2.07 15.1-1.5 6.02-2.1 6.46-3.48 8.18-2.86 3.6-8.13 2.47-10.7.03-1.52-1.44-1.72-2.7-1.43-6.94.3-4.2 1-11.57 1.96-19.24.84-6.7.26-7.72-1.8-9.6-1.92-1.75-9.28-1.5-12.7-1.5-5.26 0-4.95 2.5-5.3 11.05-.15 3.74-.32 9.4-.7 13.78-.6 7.13-14.23 12.5-20.5 12.17-6.5-.33-7.12-12.43-7.53-15.25-.4-2.8-.58-27.1.13-27.93.5-.58 4.4-1.02 8.86-1.9 9.87-1.92 11.28-3.18 11.3-6.27 0-1.5-.1-3.63-1.77-4.2-1-.33-3.54-.7-6.93-1.1-9.77-1.15-11.15-.8-11.2-2.04-.1-2.16.1-6.33-.06-7.97-.43-4.04-5.16-5.4-10.5-5.05-1.05.07-2.5.4-2.63 1.82-.1 1.4-.1 2.5-.27 4.88-.38 5.3-.5 5.88-2.54 5.87-1.84 0-17.1-1.36-20.03-.42-2.92.94-2.8 2.93-3.04 3.93-.23 1 .3 6.98.6 9.56.28 2.57.85 6.08 1.2 6.6.35.54 1.45 2.03 4.52 1.65 10.4-1.3 17.34-2.87 18.75-3.22 1.4-.35 1.57-.53 1.58.58.02.65.28 13.33.33 17.1.07 6.44 1.16 25.1-16.23 28-7.24 1.2-14.02-.9-17.1-4.3-1.75-1.92-.9-2.18-.12-3.43 1.17-1.9 10.94-13.37 2.75-25.25-4.83-7.02-16.4-7.57-20.62-5.75-3.25 1.4-5.88 5.78-6.4 11.1-1.56 16.45 7.87 26.62 8.23 27.25.44.75-1.2 3.17-6.96 4-7.72 1.14-19.58-8.15-19.27-9.36.14-.58 5.4-9.17 5.52-17.46.04-2.82-.9-6.54-2.83-10.3-1.94-3.75-8.03-9.54-14.63-8.27-15.52 3-13.75 18.3-12.67 22.47 2.23 8.64 7.45 16.26 8.3 17.8 1.17 2.06-32.83 15.53-34.15 2.92-1.3-12.5 17.28-39.45 15.82-49.9C97.35 18.5 91 16.5 85.5 16.4c-5.38-.1-6.8.76-8.6 1.82-1.06.6-2.56 1.8-4.64-.18-1.4-1.32-2.3-2.24-3.77-3.4-.76-.6-1.95-1.36-3.94-1.66-2-.3-4.58 0-6.22.7-1.64.7-2.93 1.94-4.28 3.12-1.35 1.17-4.77 5-7.96 3.6-1.38-.63-6.07-2.97-9.45-4.43-6.53-2.83-15.94 1.74-19.33 7.77-5.04 8.96-15 44.2-16.5 48.83-3.4 10.43 4.27 18.94 14.62 18.45 4.37-.2 7.28-1.8 10.04-6.83 1.6-2.9 16.58-42.06 17.7-43.94.8-1.36 3.5-3.16 5.8-1.98 2.28 1.17 2.74 3.62 2.4 5.92-.55 3.73-11.12 27.62-11.53 30.32-.7 4.6 1.5 7.15 6.27 7.4 3.27.17 6.52-1 9.1-5.88 1.46-2.73 18.13-36.12 19.6-38.35 1.63-2.44 2.93-3.24 4.58-3.16 1.28.07 3.33.4 2.82 4.24-.5 3.76-13.9 28.27-15.32 34.27-2.13 9.1 3.7 21.34 19.34 21.9 7.77.3 25.75-3.1 35.88-10.78 3.68-2.8 2.7-3.03 5-1 3.3 2.92 9.4 7.03 15.43 7.03 13.7 0 23.68-8.54 24.14-8.85.14-.1.33-.07.45.06.83.9 9.32 5.63 15.26 5.83 14.17.46 22.55-7.4 25.72-11.1 2.4-2.78 4.14-5.3 4.86-6.37.18-.27.57-.3.8-.05.84.93 7.22 12.66 19.9 11.05 7.07-.9 17.6-6.87 18.33-7.68.17-.18.47-.12.55.1.37 1.03 2 6.8 8.48 11.37 5.3 3.75 15.54 4.5 20.08 2 3.78-2.06 5.3-3.38 7.92-6.02 1.13-1.13 2.86-2.28 5.96-1.62 3.48.73 12.66 2.36 13.25 2.64.66.3.76 1.5.56 2.76-.32 1.97-1.06 8.88-1.83 15.34-.76 6.45-3.2 27.97 2.58 28.77 3.48.5 6.5-2.8 7.3-6.03 2.02-8.08 2.4-17.18 3.7-25 1.58-9.28 2.2-11.88 2.77-12.92.47-.86.48-.66 6.98-.1 4.5.38 8.16 1 13.6.25 4.48-.63 13.7-4.03 13.22-9.56m-224.9-20.88c-.2 3.04-1 4.97-2.6 7.77-1 1.75-2.05.44-2.65-.42-.87-1.23-5.32-12.02-1.92-14.24.95-.63 2.85-1 4.22-.22 1.37.76 2.2 1.88 2.57 3.12.4 1.26.53 1.97.4 4m42.1 1.57c-.4 3.5-1.87 5.48-2.42 6.2-.97 1.3-1.36 1.82-2.28.88-.75-.75-3.57-6.47-3.98-10.25-.22-2.03.34-4.93 2.05-5.6 1.8-.72 3.62-.4 4.9 1.27 2 2.62 2.03 5.02 1.75 7.5m152.87 15.35c-2.12.87-3.04.34-2.92-3.15.03-.75 3.42-18.26 9.92-21.44 1.84-.9 3.7-.86 5 .58 2.44 2.72 1.8 6.9-.04 10.73-2.67 5.54-9.06 12.08-11.96 13.27" fill="#ED1C40" fill-rule="evenodd"/>
</svg>