<svg width="30" height="25" viewBox="0 0 30 25" xmlns="http://www.w3.org/2000/svg">
  <title>
    twitter
  </title>
  <path d="M30 2.9c-1.1.48-2.3.8-3.54.95 1.28-.76 2.25-1.96 2.7-3.4-1.18.7-2.5 1.22-3.9 1.5C24.14.74 22.54 0 20.76 0c-3.4 0-6.14 2.76-6.14 6.16 0 .48.05.95.15 1.4-5.1-.26-9.65-2.7-12.68-6.43-.54.9-.84 1.96-.84 3.1 0 2.13 1.08 4 2.73 5.1-1.02-.02-1.97-.3-2.8-.76v.08c0 2.98 2.13 5.47 4.94 6.04-.5.13-1.06.2-1.62.2-.4 0-.78-.04-1.16-.1.8 2.44 3.06 4.22 5.75 4.27C7 20.72 4.36 21.7 1.48 21.7c-.5 0-1-.03-1.47-.08 2.72 1.74 5.96 2.76 9.43 2.76 11.33 0 17.52-9.38 17.52-17.5 0-.28 0-.54-.02-.8 1.2-.88 2.25-1.96 3.07-3.2" fill="#343433" fill-rule="evenodd"/>
</svg>